<svg width="16" height="16" viewBox="0 0 16 16" fill="none" xmlns="http://www.w3.org/2000/svg">
<path d="M7.99992 10.6673C10.5772 10.6673 12.6666 8.57798 12.6666 6.00065C12.6666 3.42332 10.5772 1.33398 7.99992 1.33398C5.42259 1.33398 3.33325 3.42332 3.33325 6.00065C3.33325 8.57798 5.42259 10.6673 7.99992 10.6673Z" stroke="#653AD7" stroke-linecap="round" stroke-linejoin="round"/>
<path d="M5.47341 9.92659L4.66675 14.6666L8.00008 13.1922L11.3334 14.6666L10.5267 9.91992" stroke="#653AD7" stroke-linecap="round" stroke-linejoin="round"/>
<mask id="path-3-outside-1_3776_4071" maskUnits="userSpaceOnUse" x="7" y="3" width="2" height="6" fill="black">
<rect fill="white" x="7" y="3" width="2" height="6"/>
<path d="M8.65365 8H7.7194V4.26628H7.25391V3.33203H8.65365V8Z"/>
</mask>
<path d="M8.65365 8H7.7194V4.26628H7.25391V3.33203H8.65365V8Z" fill="#653AD7"/>
<path d="M8.65365 8V8.13333H8.78698V8H8.65365ZM7.7194 8H7.58607V8.13333H7.7194V8ZM7.7194 4.26628H7.85273V4.13294H7.7194V4.26628ZM7.25391 4.26628H7.12057V4.39961H7.25391V4.26628ZM7.25391 3.33203V3.1987H7.12057V3.33203H7.25391ZM8.65365 3.33203H8.78698V3.1987H8.65365V3.33203ZM8.65365 7.86667H7.7194V8.13333H8.65365V7.86667ZM7.85273 8V4.26628H7.58607V8H7.85273ZM7.7194 4.13294H7.25391V4.39961H7.7194V4.13294ZM7.38724 4.26628V3.33203H7.12057V4.26628H7.38724ZM7.25391 3.46536H8.65365V3.1987H7.25391V3.46536ZM8.52031 3.33203V8H8.78698V3.33203H8.52031Z" fill="#653AD7" mask="url(#path-3-outside-1_3776_4071)"/>
</svg>
