<svg width="16" height="16" viewBox="0 0 16 16" fill="none" xmlns="http://www.w3.org/2000/svg">
<path fill-rule="evenodd" clip-rule="evenodd" d="M0.399902 6.16716C0.399902 5.85393 0.65383 5.6 0.967065 5.6H1.56976L2.33964 4.27021C2.60929 3.80443 2.83325 3.41757 3.04952 3.11651C3.27735 2.79937 3.52287 2.53867 3.85436 2.34756C4.18584 2.15644 4.53446 2.07458 4.92308 2.03631C5.29198 1.99998 5.739 1.99999 6.27721 2H9.72413C10.2627 1.99999 10.71 1.99998 11.0792 2.03635C11.468 2.07466 11.8169 2.15662 12.1485 2.34797C12.4801 2.53931 12.7257 2.80029 12.9535 3.11777C13.1697 3.41915 13.3936 3.80643 13.6632 4.27272L14.4305 5.6H15.0336C15.3469 5.6 15.6008 5.85393 15.6008 6.16716C15.6008 6.6975 15.3538 7.18631 14.7999 7.32381L14.7999 12.8833C14.8 13.0922 14.7953 13.3016 14.6982 13.4923C14.5486 13.7859 14.2591 13.9689 13.9344 13.9954C13.8537 14.002 13.7615 14.0019 13.6813 14.0019C13.5637 14.0019 13.4457 14.0041 13.3283 13.9945C12.9797 13.966 12.6697 13.7715 12.5089 13.4559C12.3752 13.1935 12.3999 12.8862 12.3999 12.6H3.5999C3.59991 12.8862 3.62464 13.1935 3.49091 13.4559C3.33011 13.7715 3.02008 13.966 2.67148 13.9945C2.57977 14.002 2.47381 14.0019 2.37608 14.0019C2.27256 14.0019 2.16871 14.0038 2.06544 13.9954C1.74073 13.9689 1.45123 13.7859 1.30163 13.4923C1.20447 13.3016 1.19983 13.0922 1.1999 12.8833L1.1999 7.32359C0.646499 7.1857 0.399902 6.69719 0.399902 6.16716ZM2.9999 11.3993L3.5999 11.4L12.9999 11.3993C13.3313 11.3993 13.5999 11.1306 13.5999 10.8V7.60929C13.5318 7.62086 13.4332 7.63691 13.3056 7.65594C13.0456 7.69469 12.6649 7.74582 12.1744 7.79679C11.1934 7.89871 9.77264 8 7.9999 8C6.22715 8 4.80636 7.89871 3.82539 7.79679C3.33486 7.74582 2.95416 7.69469 2.69425 7.65594C2.56656 7.63691 2.46801 7.62086 2.3999 7.60929V10.8C2.3999 11.1306 2.66847 11.3993 2.9999 11.3993ZM13.5107 6.40666L12.6387 4.89833C12.351 4.40066 12.1562 4.06506 11.9785 3.81733C11.8084 3.58032 11.6811 3.46369 11.5488 3.38737C11.4165 3.31104 11.2518 3.25917 10.9615 3.23057C10.6581 3.20067 10.27 3.2 9.69521 3.2H6.30611C5.73167 3.2 5.3439 3.20067 5.04068 3.23053C4.75058 3.2591 4.58596 3.31091 4.45373 3.38715C4.32151 3.46338 4.19419 3.57989 4.02411 3.81664C3.84634 4.06409 3.65148 4.39934 3.36366 4.89648L2.48933 6.40669C2.61681 6.42599 2.74359 6.45004 2.87118 6.46906C3.11439 6.50531 3.47743 6.55418 3.9494 6.60321C4.89343 6.70129 6.27264 6.8 7.9999 6.8C9.72715 6.8 11.1064 6.70129 12.0504 6.60321C12.5224 6.55418 12.8854 6.50531 13.1286 6.46906C13.2563 6.45003 13.3831 6.42593 13.5107 6.40666Z" fill="#4BAB00"/>
<path d="M12.3454 9.98209C12.6669 9.90172 12.8624 9.57596 12.782 9.25448C12.7016 8.933 12.3759 8.73755 12.0544 8.81792L10.4544 9.21792C10.1329 9.29828 9.93745 9.62405 10.0178 9.94552C10.0982 10.267 10.4239 10.4625 10.7454 10.3821L12.3454 9.98209Z" fill="#4BAB00"/>
<path d="M3.94542 8.81792C3.62395 8.73755 3.29819 8.933 3.21782 9.25448C3.13745 9.57596 3.3329 9.90172 3.65438 9.98209L5.25438 10.3821C5.57586 10.4625 5.90162 10.267 5.98199 9.94552C6.06236 9.62405 5.8669 9.29828 5.54542 9.21792L3.94542 8.81792Z" fill="#4BAB00"/>
</svg>
