<svg width="40" height="41" viewBox="0 0 40 41" fill="none" xmlns="http://www.w3.org/2000/svg">
<rect y="0.5" width="40" height="40" rx="20" fill="white"/>
<path fill-rule="evenodd" clip-rule="evenodd" d="M25.7952 12.5996C26.9471 12.5996 27.5344 12.713 28.1456 13.0399C28.7098 13.3417 29.1581 13.7899 29.4598 14.3541C29.7616 14.9183 29.8814 15.4621 29.898 16.4484L29.9001 16.7045V24.2948L29.898 24.5508C29.8814 25.5371 29.7616 26.0809 29.4598 26.6451C29.1581 27.2094 28.7098 27.6576 28.1456 27.9593L28.0047 28.031C27.4407 28.303 26.8585 28.3996 25.7952 28.3996H14.205C13.1417 28.3996 12.5595 28.303 11.9955 28.031L11.8546 27.9593C11.2904 27.6576 10.8421 27.2094 10.5404 26.6451C10.2386 26.0809 10.1188 25.5371 10.1022 24.5508L10.1001 24.2948V16.7045C10.1001 15.5526 10.2135 14.9653 10.5404 14.3541C10.8421 13.7899 11.2904 13.3417 11.8546 13.0399C12.4188 12.7382 12.9626 12.6183 13.9489 12.6017L14.205 12.5996H25.7952ZM28.0991 18.3996L28.1001 24.2948C28.1001 25.1749 28.0409 25.4814 27.8725 25.7962C27.7385 26.0468 27.5473 26.2381 27.2967 26.3721C27.0061 26.5275 26.7226 26.5899 25.9884 26.5985L25.7952 26.5996H14.205L14.0118 26.5985C13.2776 26.5899 12.9941 26.5275 12.7035 26.3721C12.4529 26.2381 12.2616 26.0468 12.1276 25.7962C11.9593 25.4814 11.9001 25.1749 11.9001 24.2948L11.8991 18.3996H28.0991ZM14.205 14.3996H25.7952L25.9884 14.4007C26.7226 14.4094 27.0061 14.4718 27.2967 14.6272C27.5473 14.7612 27.7385 14.9524 27.8725 15.203C28.028 15.4936 28.0903 15.7771 28.099 16.5113L28.0981 16.5996H11.9001L11.9012 16.5113C11.9099 15.7771 11.9722 15.4936 12.1276 15.203C12.2616 14.9524 12.4529 14.7612 12.7035 14.6272C13.0183 14.4588 13.3248 14.3996 14.205 14.3996Z" fill="#2688EB"/>
<path d="M14.0001 23.2996C14.0001 23.0196 14.0001 22.8796 14.0546 22.7726C14.1025 22.6786 14.179 22.6021 14.2731 22.5541C14.3801 22.4996 14.5201 22.4996 14.8001 22.4996H15.2001C15.4801 22.4996 15.6201 22.4996 15.7271 22.5541C15.8212 22.6021 15.8977 22.6786 15.9456 22.7726C16.0001 22.8796 16.0001 23.0196 16.0001 23.2996V23.6996C16.0001 23.9797 16.0001 24.1197 15.9456 24.2266C15.8977 24.3207 15.8212 24.3972 15.7271 24.4451C15.6201 24.4996 15.4801 24.4996 15.2001 24.4996H14.8001C14.5201 24.4996 14.3801 24.4996 14.2731 24.4451C14.179 24.3972 14.1025 24.3207 14.0546 24.2266C14.0001 24.1197 14.0001 23.9797 14.0001 23.6996V23.2996Z" fill="#2688EB"/>
</svg>
