<svg width="20" height="17" viewBox="0 0 20 17" fill="none" xmlns="http://www.w3.org/2000/svg">
<path fill-rule="evenodd" clip-rule="evenodd" d="M15.7952 0.599609C16.9471 0.599609 17.5344 0.713012 18.1456 1.03989C18.7098 1.34166 19.1581 1.78986 19.4598 2.35411C19.7616 2.91831 19.8814 3.46209 19.898 4.4484L19.9001 4.70447V12.2948L19.898 12.5508C19.8814 13.5371 19.7616 14.0809 19.4598 14.6451C19.1581 15.2094 18.7098 15.6576 18.1456 15.9593L18.0047 16.031C17.4407 16.303 16.8585 16.3996 15.7952 16.3996H4.20495C3.14167 16.3996 2.5595 16.303 1.99549 16.031L1.8546 15.9593C1.29035 15.6576 0.842145 15.2094 0.540382 14.6451C0.238645 14.0809 0.118808 13.5371 0.102156 12.5508L0.100098 12.2948V4.70447C0.100098 3.55258 0.213501 2.96533 0.540382 2.35411C0.842145 1.78986 1.29035 1.34166 1.8546 1.03989C2.4188 0.738157 2.96258 0.618319 3.94889 0.601668L4.20495 0.599609H15.7952ZM18.0991 6.39961L18.1001 12.2948C18.1001 13.1749 18.0409 13.4814 17.8725 13.7962C17.7385 14.0468 17.5473 14.2381 17.2967 14.3721C17.0061 14.5275 16.7226 14.5899 15.9884 14.5985L15.7952 14.5996H4.20495L4.01176 14.5985C3.27759 14.5899 2.99406 14.5275 2.70348 14.3721C2.45291 14.2381 2.26165 14.0468 2.12765 13.7962C1.95929 13.4814 1.9001 13.1749 1.9001 12.2948L1.8991 6.39961H18.0991ZM4.20495 2.39961H15.7952L15.9884 2.40068C16.7226 2.40936 17.0061 2.47175 17.2967 2.62716C17.5473 2.76116 17.7385 2.95243 17.8725 3.20299C18.028 3.49357 18.0903 3.77711 18.099 4.51127L18.0981 4.59961H1.9001L1.90117 4.51127C1.90985 3.77711 1.97224 3.49357 2.12765 3.20299C2.26165 2.95243 2.45291 2.76116 2.70348 2.62716C3.01828 2.4588 3.3248 2.39961 4.20495 2.39961Z" fill="#2688EB"/>
<path d="M4.00009 11.2996C4.00009 11.0196 4.00009 10.8796 4.05459 10.7726C4.10253 10.6786 4.17902 10.6021 4.2731 10.5541C4.38005 10.4996 4.52007 10.4996 4.80009 10.4996H5.20009C5.48012 10.4996 5.62013 10.4996 5.72709 10.5541C5.82117 10.6021 5.89766 10.6786 5.94559 10.7726C6.00009 10.8796 6.00009 11.0196 6.00009 11.2996V11.6996C6.00009 11.9797 6.00009 12.1197 5.94559 12.2266C5.89766 12.3207 5.82117 12.3972 5.72709 12.4451C5.62013 12.4996 5.48012 12.4996 5.20009 12.4996H4.80009C4.52007 12.4996 4.38005 12.4996 4.2731 12.4451C4.17902 12.3972 4.10253 12.3207 4.05459 12.2266C4.00009 12.1197 4.00009 11.9797 4.00009 11.6996V11.2996Z" fill="#2688EB"/>
</svg>
