<svg width="20" height="20" viewBox="0 0 20 20" fill="none" xmlns="http://www.w3.org/2000/svg">
<path d="M12.7045 5.14844H7.29639V14.8669H12.7045V5.14844Z" fill="#FF5F00"/>
<path d="M7.63948 10.0088C7.63862 9.07282 7.85072 8.14894 8.25971 7.30707C8.66869 6.4652 9.26385 5.72741 10.0001 5.14955C9.08835 4.43288 7.99334 3.98719 6.84024 3.86342C5.68714 3.73966 4.52249 3.94282 3.47939 4.44968C2.4363 4.95653 1.55685 5.74664 0.941568 6.72969C0.326288 7.71274 0 8.84906 0 10.0088C0 11.1685 0.326288 12.3048 0.941568 13.2879C1.55685 14.2709 2.4363 15.061 3.47939 15.5679C4.52249 16.0747 5.68714 16.2779 6.84024 16.1541C7.99334 16.0304 9.08835 15.5847 10.0001 14.868C9.26385 14.2902 8.6687 13.5524 8.25971 12.7105C7.85072 11.8686 7.63863 10.9447 7.63948 10.0088Z" fill="#EB001B"/>
<path d="M19.9998 10.0088C19.9999 11.1685 19.6736 12.3048 19.0584 13.2879C18.4431 14.2709 17.5637 15.061 16.5206 15.5679C15.4775 16.0747 14.3129 16.2779 13.1598 16.1541C12.0067 16.0304 10.9117 15.5847 10 14.868C10.7356 14.2896 11.3303 13.5517 11.7392 12.7099C12.1482 11.8682 12.3606 10.9446 12.3606 10.0088C12.3606 9.07297 12.1482 8.14938 11.7392 7.30764C11.3303 6.4659 10.7356 5.72799 10 5.14955C10.9117 4.43287 12.0067 3.98718 13.1598 3.86342C14.3129 3.73966 15.4775 3.94282 16.5206 4.44969C17.5637 4.95655 18.4431 5.74666 19.0584 6.72971C19.6736 7.71276 19.9999 8.84907 19.9998 10.0088Z" fill="#F79E1B"/>
<path d="M19.4102 13.8376V13.6386H19.4905V13.5981H19.2861V13.6386H19.3664V13.8376H19.4102ZM19.8069 13.8376V13.5977H19.7443L19.6722 13.7627L19.6002 13.5977H19.5375V13.8376H19.5817V13.6566L19.6493 13.8126H19.6952L19.7627 13.6562V13.8376H19.8069Z" fill="#F79E1B"/>
</svg>
