<svg width="10" height="10" viewBox="0 0 10 10" fill="none" xmlns="http://www.w3.org/2000/svg">
<path fill-rule="evenodd" clip-rule="evenodd" d="M5.00002 0.78125C5.2589 0.78125 5.46877 0.991116 5.46877 1.25V4.53125L8.75 4.53125C9.00888 4.53125 9.21875 4.74112 9.21875 5C9.21875 5.25888 9.00888 5.46875 8.75 5.46875L5.46877 5.46875V8.75C5.46877 9.00888 5.2589 9.21875 5.00002 9.21875C4.74113 9.21875 4.53127 9.00888 4.53127 8.75V5.46875H1.25C0.991116 5.46875 0.78125 5.25888 0.78125 5C0.78125 4.74111 0.991116 4.53125 1.25 4.53125H4.53127V1.25C4.53127 0.991116 4.74113 0.78125 5.00002 0.78125Z" fill="white"/>
</svg>
