<svg width="12" height="12" viewBox="0 0 12 12" fill="none" xmlns="http://www.w3.org/2000/svg">
<path d="M5.85585 1.74229C5.95247 1.41924 6.39507 1.41924 6.49169 1.74229L7.35815 4.63923C7.40123 4.78329 7.53014 4.88153 7.67607 4.88153H10.5141C10.8324 4.88153 10.9691 5.29889 10.7161 5.49852L8.39184 7.33304C8.28102 7.4205 8.23475 7.57008 8.27592 7.70774L9.15687 10.6531C9.25252 10.9729 8.89439 11.231 8.63694 11.0278L6.37577 9.24315C6.25651 9.14902 6.09103 9.14902 5.97177 9.24315L3.7106 11.0278C3.45315 11.231 3.09502 10.9729 3.19067 10.6531L4.07162 7.70774C4.11279 7.57008 4.06652 7.4205 3.9557 7.33304L1.6314 5.49852C1.37847 5.29889 1.51511 4.88153 1.8334 4.88153H4.67147C4.8174 4.88153 4.94631 4.78329 4.98939 4.63923L5.85585 1.74229Z" fill="#FFD43A"/>
</svg>
