<svg width="20" height="20" viewBox="0 0 20 20" fill="none" xmlns="http://www.w3.org/2000/svg">
<path d="M9.9027 6.8719L8.56653 13.1187H6.95034L8.28665 6.8719H9.9027ZM16.7019 10.9056L17.5525 8.55975L18.042 10.9056H16.7019ZM18.5056 13.1187H20L18.6945 6.8719H17.316C17.0053 6.8719 16.7435 7.05202 16.6275 7.32979L14.2026 13.1187H15.8999L16.2368 12.1858H18.3099L18.5056 13.1187ZM14.2868 11.0794C14.2938 9.43072 12.0077 9.33939 12.023 8.60274C12.0279 8.37892 12.2415 8.14049 12.7082 8.07951C12.9396 8.04973 13.5782 8.02556 14.3021 8.35911L14.5852 7.0339C14.1964 6.89326 13.6961 6.75781 13.0735 6.75781C11.4759 6.75781 10.352 7.60644 10.343 8.82263C10.3328 9.72198 11.1459 10.2234 11.7572 10.523C12.3875 10.8291 12.5987 11.0254 12.5956 11.299C12.5912 11.7181 12.093 11.9037 11.629 11.9107C10.8161 11.9234 10.3449 11.691 9.9693 11.5159L9.67593 12.8854C10.0542 13.0585 10.7511 13.2091 11.4727 13.2168C13.1712 13.2168 14.2817 12.3782 14.2868 11.0794ZM7.59342 6.8719L4.97489 13.1187H3.26681L1.97812 8.13332C1.90001 7.82675 1.83186 7.71407 1.59427 7.58452C1.20565 7.37349 0.564114 7.17609 0 7.05329L0.0382169 6.8719H2.78812C3.13839 6.8719 3.45353 7.10499 3.53376 7.50851L4.21449 11.1236L5.89559 6.8719H7.59342Z" fill="#1434CB"/>
</svg>
