<svg width="14" height="14" viewBox="0 0 14 14" fill="none" xmlns="http://www.w3.org/2000/svg">
<path d="M2.87534 1.10635C2.38718 0.618196 1.59573 0.618196 1.10757 1.10635C0.619416 1.59451 0.619416 2.38596 1.10757 2.87412L5.23236 6.99891L1.10757 11.1237C0.619416 11.6119 0.619416 12.4033 1.10757 12.8915C1.59573 13.3796 2.38718 13.3796 2.87534 12.8915L7.00013 8.76667L11.1249 12.8915C11.6131 13.3796 12.4045 13.3796 12.8927 12.8915C13.3808 12.4033 13.3808 11.6119 12.8927 11.1237L8.76789 6.99891L12.8927 2.87412C13.3808 2.38596 13.3808 1.59451 12.8927 1.10635C12.4045 0.618196 11.6131 0.618195 11.1249 1.10635L7.00013 5.23114L2.87534 1.10635Z" fill="#99A2AD"/>
</svg>
